<svg preserveAspectRatio="none" width="100%" height="100%" overflow="visible" style="display: block;" viewBox="0 0 195.629 180" fill="none" xmlns="http://www.w3.org/2000/svg">
<path id="Black Outer" d="M0 82L2.5 7V5.64485C2.5 2.52729 5.02729 0 8.14485 0C11.3433 0 13.9029 2.65488 13.7859 5.85123L11 82V115.5C11 127.299 15.9047 138.566 24.54 146.606L25.5 147.5L31.4623 152.761C38.771 159.21 47.0905 164.413 56.0879 168.162C66.922 172.676 78.5428 175 90.2798 175H107.783C112.585 175 117.379 174.59 122.113 173.774L128.458 172.68C138.646 170.923 148.205 166.559 156.206 160.013L158.409 158.211C170.235 148.535 177.364 134.267 178 119V85V64.5L177 37V10C177 5.85786 180.358 2.5 184.5 2.5C188.642 2.5 192 5.85786 192 10V56.1842C192 59.7194 192.349 63.246 193.043 66.7126L193.815 70.5732C195.266 77.832 195.85 85.2376 195.555 92.6342L195.178 102.06C194.732 113.198 191.68 124.076 186.267 133.82C183.433 138.921 179.983 143.654 175.996 147.914L166.893 157.637C162.326 162.516 157.025 166.653 151.183 169.898C145.102 173.277 138.511 175.646 131.67 176.913L124.712 178.201C118.251 179.398 111.694 180 105.123 180H83.9056C76.3369 180 68.8031 178.973 61.5105 176.947C56.8456 175.652 52.302 173.953 47.9309 171.872L45.1172 170.532C37.4043 166.859 30.1949 162.211 23.6658 156.702L21.4613 154.842C18.8247 152.618 16.372 150.184 14.1269 147.565L10.1301 142.902C5.13845 137.078 1.83349 130.001 0.572524 122.435C0.191493 120.149 0 117.835 0 115.517V82Z" fill="var(--fill-0, #242424)"/>
</svg>
