<svg preserveAspectRatio="none" width="100%" height="100%" overflow="visible" style="display: block;" viewBox="0 0 170.721 290.946" fill="none" xmlns="http://www.w3.org/2000/svg">
<path id="Grey Ring" d="M41.5 0H21H18.086C15.4698 0 12.9607 1.0393 11.1107 2.88925C10.7044 3.29564 10.3343 3.73676 10.0047 4.20759L8.21745 6.76079C2.86887 14.4016 0 23.5027 0 32.8295V53.5L2 99L4.5 161C4.5 174.143 7.64264 187.095 13.6658 198.776L21 213L41.5 245.5L64.5 274.5L73.2157 283.216C76.9847 286.985 81.7998 289.533 87.0357 290.531C88.6749 290.843 90.3398 291.021 92.0051 290.915C96.3232 290.639 102.356 289.63 104 287C106 283.8 112.5 274 115.5 269.5L129 247.5L142.5 230L148.987 219.034C158.581 202.815 165.126 184.977 168.297 166.401C169.763 157.816 170.5 149.122 170.5 140.412V109C170.667 90.5 170.9 54 170.5 56C170.265 57.1774 169.555 48.5933 168.842 38.6126C167.891 25.3103 164.793 12.2407 159.5 0H129C137.854 13.445 143.138 28.9233 144.354 44.9757L145 53.5L147.231 131.14C147.41 137.368 147.044 143.6 146.138 149.765L145.297 155.479C145.099 156.824 145 158.183 145 159.543C145 163.147 144.303 166.717 142.946 170.056L138.5 181L129.418 199.513C126.817 204.816 123.555 209.77 119.71 214.255L115.196 219.521C112.097 223.137 108.305 226.097 104.045 228.227C99.0833 230.708 93.6118 232 88.064 232H86.0268C83.6793 232 81.3355 231.814 79.0175 231.443L76.0727 230.972C72.0641 230.33 68.2226 228.9 64.7709 226.763C61.2921 224.609 58.2792 221.782 55.9094 218.447L46 204.5L39.7873 194.431C34.3083 185.551 30.4942 175.747 28.5318 165.5C27.5129 160.178 27 154.773 27 149.355V101V68.8384C27 58.6335 27.9183 48.4493 29.7438 38.409C31.9084 26.5037 35.3372 14.8632 39.9719 3.68547L41.5 0Z" fill="var(--fill-0, #373737)"/>
</svg>
