<svg preserveAspectRatio="none" width="100%" height="100%" overflow="visible" style="display: block;" viewBox="0 0 175 177.218" fill="none" xmlns="http://www.w3.org/2000/svg">
<path id="Grey Inner" d="M0 118L1.5 61L4.42373 3.5C4.42527 3.4292 4.42886 3.35891 4.43445 3.2892C4.58227 1.44366 6.12598 0 8.00083 0H28.5V61L30.5 81.5L37.9737 113.593C38.6553 116.52 39.6935 119.352 41.0649 122.026L41.9543 123.761C46.4143 132.458 54.5384 138.697 64.0917 140.763C66.3575 141.253 68.6689 141.5 70.987 141.5H104.252C113.453 141.5 122.357 138.245 129.39 132.312C132.772 129.458 135.643 126.049 137.881 122.232L138.814 120.641C141.586 115.913 143.557 110.759 144.648 105.389L147.348 92.095C148.78 85.0436 149.63 77.8864 149.889 70.6956L151.5 26V0H175V101L172.111 133.605C171.713 138.092 169.938 142.346 167.029 145.784C166.344 146.594 165.601 147.352 164.806 148.054L157.5 154.5L148.745 162.282C142.672 167.681 135.383 171.529 127.5 173.5L107.5 176.5L79.7594 177.194C71.6354 177.397 63.5288 176.342 55.7273 174.066C47.6283 171.704 39.9613 168.057 33.019 163.263L22.5 156L16.1752 150.428C6.76524 142.138 0.961823 130.504 0 118Z" fill="var(--fill-0, #373737)"/>
</svg>
