<svg preserveAspectRatio="none" width="100%" height="100%" overflow="visible" style="display: block;" viewBox="0 0 1766.58 86.2137" fill="none" xmlns="http://www.w3.org/2000/svg">
<g id="NIKE Logos">
<path id="Right Shoulder Logo" d="M3.22299 62.6125C3.41351 64.6613 4.07267 66.3111 5.20227 67.5689C5.41805 67.8089 6.05694 68.3744 6.3237 68.5614C7.03246 69.0583 7.71406 69.3857 8.4619 69.5887C10.7639 70.2133 13.7135 69.6751 16.8964 68.0496C19.6214 66.6578 22.288 64.5908 25.9451 61.0367C26.4832 60.5133 28.0555 58.9559 28.055 58.9464C28.0548 58.9429 27.9178 59.0304 27.7512 59.1403C26.3123 60.09 24.6026 60.9277 23.1099 61.4134C20.7149 62.1936 18.626 62.2241 16.9673 61.5041C15.8246 61.0073 14.8101 60.1062 14.2207 59.064C13.1894 57.2395 12.9684 54.5007 13.5774 51.1099C13.6196 50.8764 16.1047 39.2871 19.1 25.3556C22.0957 11.4241 24.5441 0.02386 24.5415 0.0222339C24.5381 0.0185441 12.3258 32.6645 5.99071 49.6113C4.98776 52.2951 4.73647 53.0119 4.3608 54.2686C3.40026 57.4811 3.01112 60.334 3.22299 62.6125V62.6125Z" fill="var(--fill-0, #F2F2F2)"/>
<path id="Left Shoulder Logo" d="M856.354 62.6125C856.163 64.6613 855.504 66.3111 854.374 67.5689C854.159 67.8089 853.52 68.3744 853.253 68.5614C852.544 69.0583 851.863 69.3857 851.115 69.5887C848.813 70.2133 845.863 69.6751 842.68 68.0496C839.955 66.6578 837.289 64.5908 833.632 61.0367C833.093 60.5133 831.521 58.9559 831.522 58.9464C831.522 58.9429 831.659 59.0304 831.825 59.1403C833.264 60.09 834.974 60.9277 836.467 61.4134C838.862 62.1936 840.951 62.2241 842.609 61.5041C843.752 61.0073 844.767 60.1062 845.356 59.064C846.387 57.2395 846.608 54.5007 845.999 51.1099C845.957 50.8764 843.472 39.2871 840.477 25.3556C837.481 11.4241 835.033 0.02386 835.035 0.0222339C835.039 0.0185441 847.251 32.6645 853.586 49.6113C854.589 52.2951 854.84 53.0119 855.216 54.2686C856.176 57.4811 856.566 60.334 856.354 62.6125V62.6125Z" fill="var(--fill-0, #F2F2F2)"/>
<path id="Left Shoulder Logo (B)" d="M906.223 23.6012C906.413 21.5524 907.073 19.9026 908.202 18.6448C908.418 18.4048 909.057 17.8393 909.324 17.6524C910.032 17.1554 910.714 16.828 911.462 16.6251C913.764 16.0005 916.713 16.5386 919.896 18.1641C922.621 19.5559 925.288 21.6229 928.945 25.177C929.483 25.7005 931.055 27.2578 931.055 27.2673C931.055 27.2708 930.918 27.1833 930.751 27.0734C929.312 26.1237 927.603 25.286 926.11 24.8003C923.715 24.0201 921.626 23.9896 919.967 24.7096C918.825 25.2064 917.81 26.1075 917.221 27.1497C916.189 28.9742 915.968 31.713 916.577 35.1038C916.62 35.3373 919.105 46.9266 922.1 60.8581C925.096 74.7896 927.544 86.1899 927.541 86.1915C927.538 86.1952 915.326 53.5492 908.991 36.6024C907.988 33.9186 907.736 33.2018 907.361 31.9451C906.4 28.7326 906.011 25.8797 906.223 23.6012V23.6012Z" fill="var(--fill-0, #F2F2F2)"/>
<path id="Right Shoulder Logo (B)" d="M1763.35 23.6012C1763.16 21.5524 1762.5 19.9026 1761.37 18.6448C1761.16 18.4048 1760.52 17.8393 1760.25 17.6524C1759.54 17.1554 1758.86 16.828 1758.11 16.6251C1755.81 16.0005 1752.86 16.5386 1749.68 18.1641C1746.96 19.5559 1744.29 21.6229 1740.63 25.177C1740.09 25.7005 1738.52 27.2578 1738.52 27.2673C1738.52 27.2708 1738.66 27.1833 1738.83 27.0734C1740.26 26.1237 1741.97 25.286 1743.47 24.8003C1745.86 24.0201 1747.95 23.9896 1749.61 24.7096C1750.75 25.2064 1751.77 26.1075 1752.36 27.1497C1753.39 28.9742 1753.61 31.713 1753 35.1038C1752.96 35.3373 1750.47 46.9266 1747.48 60.8581C1744.48 74.7896 1742.03 86.1899 1742.04 86.1915C1742.04 86.1952 1754.25 53.5492 1760.59 36.6024C1761.59 33.9186 1761.84 33.2018 1762.22 31.9451C1763.18 28.7326 1763.57 25.8797 1763.35 23.6012V23.6012Z" fill="var(--fill-0, #F2F2F2)"/>
</g>
</svg>
