<svg preserveAspectRatio="none" width="100%" height="100%" overflow="visible" style="display: block;" viewBox="0 0 2048 143" fill="none" xmlns="http://www.w3.org/2000/svg">
<path id="T-Shirt" d="M0 0H42.0888C68.7898 0 95.2513 5.03724 120.085 14.8475C149.651 26.5271 181.462 31.4176 213.171 29.1579L331.215 20.7458C350.989 19.3367 370.862 20.4899 390.339 24.1767L457.699 36.9267C477.481 40.671 497.668 41.8018 517.744 40.2902L706.724 26.0607C719.552 25.0948 732.438 25.2068 745.248 26.3956L815.209 32.8885C827.384 34.0184 839.629 34.1757 851.829 33.3588L982.5 24.6093L1154 33.3389C1170.29 34.168 1186.62 33.2623 1202.71 30.637L1284.54 17.292C1300.8 14.6399 1317.3 13.7427 1333.75 14.616L1509.5 23.9442L1672.48 30.9033C1698.57 32.0172 1724.62 27.9564 1749.13 18.9551C1778.3 8.24273 1809.58 4.55158 1840.44 8.18061L1858.23 10.2721C1875.36 12.2859 1892.65 12.3674 1909.8 10.5153L1982.5 2.66047H2048V143H0V0Z" fill="var(--fill-0, #E1E1E1)"/>
</svg>
